<svg xmlns="http://www.w3.org/2000/svg" viewBox="0 0 200 200">

  <!-- Left horn: sweeps up and outward -->
  <path d="M 88,72
           C 82,58 70,42 55,26
           C 46,16 40,10 44,6
           C 48,2 56,8 64,20
           C 72,32 80,50 88,70 Z"
        fill="#0d0d0d"/>

  <!-- Right horn: mirror -->
  <path d="M 112,72
           C 118,58 130,42 145,26
           C 154,16 160,10 156,6
           C 152,2 144,8 136,20
           C 128,32 120,50 112,70 Z"
        fill="#0d0d0d"/>

  <!-- Main head shape (full outer silhouette) -->
  <path d="M 56,78
           C 50,65 52,54 62,50
           C 68,42 78,38 88,42
           C 90,36 95,32 100,32
           C 105,32 110,36 112,42
           C 122,38 132,42 138,50
           C 148,54 150,65 144,78
           C 152,86 156,100 154,118
           C 152,138 144,155 132,164
           C 122,172 112,176 100,176
           C 88,176 78,172 68,164
           C 56,155 48,138 46,118
           C 44,100 48,86 56,78 Z"
        fill="#0d0d0d"/>

  <!-- V-notch between horns (white cutout) -->
  <path d="M 86,68
           L 100,84
           L 114,68
           C 108,58 100,54 100,54
           C 100,54 92,58 86,68 Z"
        fill="white"/>

  <!-- Inner face white area -->
  <path d="M 68,108
           C 66,90 76,78 100,76
           C 124,78 134,90 132,108
           C 134,128 128,150 118,160
           C 112,167 106,170 100,170
           C 94,170 88,167 82,160
           C 72,150 66,128 68,108 Z"
        fill="white"/>

  <!-- Brow / angular eye-bridge (dark, creates the face look) -->
  <path d="M 72,106
           L 84,94
           L 100,102
           L 116,94
           L 128,106
           L 120,114
           L 100,106
           L 80,114 Z"
        fill="#0d0d0d"/>

  <!-- Nose / snout (dark angular shape at bottom) -->
  <path d="M 86,154
           L 100,170
           L 114,154
           C 110,146 100,143 100,143
           C 100,143 90,146 86,154 Z"
        fill="#0d0d0d"/>

</svg>
